<mxfile host="app.diagrams.net" agent="Mozilla/5.0 (Windows NT 10.0; Win64; x64) AppleWebKit/537.36 (KHTML, like Gecko) Chrome/127.0.0.0 Safari/537.36 Edg/127.0.0.0" version="24.7.7">
  <diagram name="Page-1" id="_zPgI1Q9azc6xomA_cLy">
    <mxGraphModel dx="1257" dy="718" grid="1" gridSize="10" guides="1" tooltips="1" connect="1" arrows="1" fold="1" page="1" pageScale="1" pageWidth="1100" pageHeight="850" math="0" shadow="0">
      <root>
        <mxCell id="0" />
        <mxCell id="1" parent="0" />
        <mxCell id="dtMX1TJVlTVmobJGIK8u-3" style="edgeStyle=orthogonalEdgeStyle;rounded=0;orthogonalLoop=1;jettySize=auto;html=1;entryX=0.5;entryY=0;entryDx=0;entryDy=0;" edge="1" parent="1" source="dtMX1TJVlTVmobJGIK8u-1" target="dtMX1TJVlTVmobJGIK8u-2">
          <mxGeometry relative="1" as="geometry" />
        </mxCell>
        <mxCell id="dtMX1TJVlTVmobJGIK8u-1" value="Start" style="html=1;dashed=0;whiteSpace=wrap;shape=mxgraph.dfd.start" vertex="1" parent="1">
          <mxGeometry x="100" y="200" width="80" height="40" as="geometry" />
        </mxCell>
        <mxCell id="dtMX1TJVlTVmobJGIK8u-7" style="edgeStyle=orthogonalEdgeStyle;rounded=0;orthogonalLoop=1;jettySize=auto;html=1;entryX=0.5;entryY=0;entryDx=0;entryDy=0;" edge="1" parent="1" source="dtMX1TJVlTVmobJGIK8u-2" target="dtMX1TJVlTVmobJGIK8u-6">
          <mxGeometry relative="1" as="geometry" />
        </mxCell>
        <mxCell id="dtMX1TJVlTVmobJGIK8u-2" value="LAS" style="html=1;dashed=0;whiteSpace=wrap;shape=partialRectangle;right=0;" vertex="1" parent="1">
          <mxGeometry x="40" y="280" width="80" height="40" as="geometry" />
        </mxCell>
        <mxCell id="dtMX1TJVlTVmobJGIK8u-8" style="edgeStyle=orthogonalEdgeStyle;rounded=0;orthogonalLoop=1;jettySize=auto;html=1;entryX=0.5;entryY=0;entryDx=0;entryDy=0;" edge="1" parent="1" source="dtMX1TJVlTVmobJGIK8u-4" target="dtMX1TJVlTVmobJGIK8u-6">
          <mxGeometry relative="1" as="geometry" />
        </mxCell>
        <mxCell id="dtMX1TJVlTVmobJGIK8u-4" value="NBUW" style="html=1;dashed=0;whiteSpace=wrap;shape=partialRectangle;right=0;" vertex="1" parent="1">
          <mxGeometry x="160" y="280" width="80" height="40" as="geometry" />
        </mxCell>
        <mxCell id="dtMX1TJVlTVmobJGIK8u-5" style="edgeStyle=orthogonalEdgeStyle;rounded=0;orthogonalLoop=1;jettySize=auto;html=1;entryX=0.5;entryY=0;entryDx=0;entryDy=0;exitX=0.5;exitY=0.5;exitDx=0;exitDy=20;exitPerimeter=0;" edge="1" parent="1" source="dtMX1TJVlTVmobJGIK8u-1" target="dtMX1TJVlTVmobJGIK8u-4">
          <mxGeometry relative="1" as="geometry">
            <mxPoint x="150" y="250" as="sourcePoint" />
            <mxPoint x="90" y="290" as="targetPoint" />
          </mxGeometry>
        </mxCell>
        <mxCell id="dtMX1TJVlTVmobJGIK8u-9" style="edgeStyle=orthogonalEdgeStyle;rounded=0;orthogonalLoop=1;jettySize=auto;html=1;entryX=0;entryY=0.5;entryDx=0;entryDy=0;" edge="1" parent="1" source="dtMX1TJVlTVmobJGIK8u-6" target="dtMX1TJVlTVmobJGIK8u-10">
          <mxGeometry relative="1" as="geometry">
            <mxPoint x="280" y="400" as="targetPoint" />
          </mxGeometry>
        </mxCell>
        <mxCell id="dtMX1TJVlTVmobJGIK8u-6" value="Mapping" style="shape=ellipse;html=1;dashed=0;whiteSpace=wrap;perimeter=ellipsePerimeter;aspect=fixed;" vertex="1" parent="1">
          <mxGeometry x="100" y="360" width="80" height="80" as="geometry" />
        </mxCell>
        <mxCell id="dtMX1TJVlTVmobJGIK8u-11" style="edgeStyle=orthogonalEdgeStyle;rounded=0;orthogonalLoop=1;jettySize=auto;html=1;" edge="1" parent="1" source="dtMX1TJVlTVmobJGIK8u-10">
          <mxGeometry relative="1" as="geometry">
            <mxPoint x="440" y="400" as="targetPoint" />
          </mxGeometry>
        </mxCell>
        <mxCell id="dtMX1TJVlTVmobJGIK8u-10" value="Process" style="shape=ellipse;html=1;dashed=0;whiteSpace=wrap;perimeter=ellipsePerimeter;aspect=fixed;" vertex="1" parent="1">
          <mxGeometry x="280" y="360" width="80" height="80" as="geometry" />
        </mxCell>
        <mxCell id="dtMX1TJVlTVmobJGIK8u-15" style="edgeStyle=orthogonalEdgeStyle;rounded=0;orthogonalLoop=1;jettySize=auto;html=1;entryX=0;entryY=0.5;entryDx=0;entryDy=0;" edge="1" parent="1" source="dtMX1TJVlTVmobJGIK8u-12" target="dtMX1TJVlTVmobJGIK8u-14">
          <mxGeometry relative="1" as="geometry" />
        </mxCell>
        <mxCell id="dtMX1TJVlTVmobJGIK8u-12" value=".xlsx files" style="shape=parallelogram;perimeter=parallelogramPerimeter;whiteSpace=wrap;html=1;dashed=0;" vertex="1" parent="1">
          <mxGeometry x="430" y="375" width="100" height="50" as="geometry" />
        </mxCell>
        <mxCell id="dtMX1TJVlTVmobJGIK8u-14" value="Process" style="shape=ellipse;html=1;dashed=0;whiteSpace=wrap;perimeter=ellipsePerimeter;aspect=fixed;" vertex="1" parent="1">
          <mxGeometry x="600" y="360" width="80" height="80" as="geometry" />
        </mxCell>
      </root>
    </mxGraphModel>
  </diagram>
</mxfile>
